<?xml version="1.0" encoding="utf-8"?>
<!-- Generator: Adobe Illustrator 16.0.0, SVG Export Plug-In . SVG Version: 6.00 Build 0)  -->
<!DOCTYPE svg PUBLIC "-//W3C//DTD SVG 1.1//EN" "http://www.w3.org/Graphics/SVG/1.1/DTD/svg11.dtd">
<svg version="1.1" id="Layer_1" xmlns="http://www.w3.org/2000/svg" xmlns:xlink="http://www.w3.org/1999/xlink" x="0px" y="0px"
	 width="258px" height="95.333px" viewBox="0 0 258 95.333" enable-background="new 0 0 258 95.333" xml:space="preserve">
<g>
	<g>
		<line fill="#BCBEC0" stroke="#000000" stroke-miterlimit="10" x1="3" y1="91" x2="253" y2="91"/>
		<line fill="#BCBEC0" stroke="#000000" stroke-miterlimit="10" x1="29" y1="48" x2="228.999" y2="48"/>
		<line fill="#BCBEC0" stroke="#000000" stroke-miterlimit="10" x1="104" y1="5" x2="154" y2="5"/>
		<line fill="#BCBEC0" stroke="#000000" stroke-miterlimit="10" x1="4" y1="91" x2="29" y2="47.699"/>
		<line fill="#BCBEC0" stroke="#000000" stroke-miterlimit="10" x1="54" y1="91.303" x2="104" y2="4.7"/>
		<line fill="#BCBEC0" stroke="#000000" stroke-miterlimit="10" x1="104" y1="91.303" x2="154" y2="4.701"/>
		<line fill="#BCBEC0" stroke="#000000" stroke-miterlimit="10" x1="154.001" y1="90.949" x2="104" y2="4.347"/>
		<line fill="#BCBEC0" stroke="#000000" stroke-miterlimit="10" x1="204.002" y1="91.304" x2="154" y2="4.701"/>
		<line fill="#BCBEC0" stroke="#000000" stroke-miterlimit="10" x1="253" y1="91" x2="227.999" y2="47.699"/>
		<line fill="#BCBEC0" stroke="#000000" stroke-miterlimit="10" x1="104" y1="91" x2="79" y2="47.699"/>
		<line fill="#BCBEC0" stroke="#000000" stroke-miterlimit="10" x1="54" y1="91.002" x2="29" y2="47.702"/>
		<line fill="#BCBEC0" stroke="#000000" stroke-miterlimit="10" x1="154" y1="91.003" x2="179.001" y2="47.702"/>
		<line fill="#BCBEC0" stroke="#000000" stroke-miterlimit="10" x1="204" y1="91.003" x2="229.001" y2="47.701"/>
	</g>
	<polygon fill="#BCBEC0" stroke="#000000" stroke-miterlimit="10" points="4,91 29,47.7 54,91 	"/>
	<polygon fill="#BCBEC0" stroke="#000000" stroke-miterlimit="10" points="104,91 129,47.699 154,91 	"/>
	<polygon fill="#BCBEC0" stroke="#000000" stroke-miterlimit="10" points="129,48.317 154,5.016 179,48.317 	"/>
	<polygon fill="#BCBEC0" stroke="#000000" stroke-miterlimit="10" points="54,91 79,47.7 104,91 	"/>
	<polygon fill="#BCBEC0" stroke="#000000" stroke-miterlimit="10" points="154,91 179,47.699 204,91 	"/>
	<polygon fill="#BCBEC0" stroke="#000000" stroke-miterlimit="10" points="79,48.317 104,5.017 129,48.317 	"/>
	<polygon fill="#BCBEC0" stroke="#000000" stroke-miterlimit="10" points="203.999,91 229,47.699 254,91 	"/>
	<polygon fill="#BCBEC0" stroke="#000000" stroke-miterlimit="10" points="229.002,47.703 204.002,91.003 179.002,47.703 	"/>
	<polygon fill="#BCBEC0" stroke="#000000" stroke-miterlimit="10" points="154,4.347 129,47.648 104,4.347 	"/>
	<polygon fill="#BCBEC0" stroke="#000000" stroke-miterlimit="10" points="179,47.703 154,91.004 129,47.703 	"/>
	<polygon fill="#BCBEC0" stroke="#000000" stroke-miterlimit="10" points="129,48.317 104,91.618 79,48.317 	"/>
	<polygon fill="#BCBEC0" stroke="#000000" stroke-miterlimit="10" points="79,48.317 54,91.618 29,48.317 	"/>
</g>
<line fill="none" stroke="#000000" stroke-width="5" stroke-miterlimit="10" x1="4" y1="91" x2="253" y2="91"/>
<line fill="none" stroke="#000000" stroke-width="5" stroke-miterlimit="10" x1="29" y1="48" x2="79" y2="48"/>
<line fill="none" stroke="#000000" stroke-width="5" stroke-miterlimit="10" x1="103" y1="4.347" x2="153" y2="4.347"/>
<line fill="none" stroke="#000000" stroke-width="5" stroke-miterlimit="10" x1="180" y1="48.317" x2="230" y2="48.317"/>
<line fill="none" stroke="#000000" stroke-width="5" stroke-miterlimit="10" x1="79" y1="47.648" x2="104" y2="4.347"/>
<line fill="none" stroke="#000000" stroke-width="5" stroke-miterlimit="10" x1="3" y1="91.618" x2="28" y2="48.316"/>
<line fill="none" stroke="#000000" stroke-width="5" stroke-miterlimit="10" x1="179.001" y1="48.317" x2="154.001" y2="5.016"/>
<line fill="none" stroke="#000000" stroke-width="5" stroke-miterlimit="10" x1="255" y1="91.618" x2="230" y2="48.317"/>
</svg>
