<?xml version="1.0" encoding="utf-8"?>
<!-- Generator: Adobe Illustrator 16.0.0, SVG Export Plug-In . SVG Version: 6.00 Build 0)  -->
<!DOCTYPE svg PUBLIC "-//W3C//DTD SVG 1.1//EN" "http://www.w3.org/Graphics/SVG/1.1/DTD/svg11.dtd">
<svg version="1.1" id="Layer_1" xmlns="http://www.w3.org/2000/svg" xmlns:xlink="http://www.w3.org/1999/xlink" x="0px" y="0px"
	 width="300px" height="300px" viewBox="0 0 300 300" enable-background="new 0 0 300 300" xml:space="preserve">
<g>
	<g>
		<line fill="#BCBEC0" stroke="#000000" stroke-miterlimit="10" x1="190.271" y1="37.497" x2="65.271" y2="254.002"/>
		<line fill="#BCBEC0" stroke="#000000" stroke-miterlimit="10" x1="214.511" y1="81.512" x2="114.51" y2="254.717"/>
		<line fill="#BCBEC0" stroke="#000000" stroke-miterlimit="10" x1="214.249" y1="167.964" x2="189.249" y2="211.265"/>
		<line fill="#BCBEC0" stroke="#000000" stroke-miterlimit="10" x1="189.771" y1="38.362" x2="214.772" y2="81.664"/>
		<line fill="#BCBEC0" stroke="#000000" stroke-miterlimit="10" x1="164.509" y1="81.513" x2="214.509" y2="168.114"/>
		<line fill="#BCBEC0" stroke="#000000" stroke-miterlimit="10" x1="139.509" y1="124.813" x2="189.509" y2="211.416"/>
		<line fill="#BCBEC0" stroke="#000000" stroke-miterlimit="10" x1="114.816" y1="168.292" x2="214.815" y2="168.291"/>
		<line fill="#BCBEC0" stroke="#000000" stroke-miterlimit="10" x1="89.507" y1="211.417" x2="189.509" y2="211.416"/>
		<line fill="#BCBEC0" stroke="#000000" stroke-miterlimit="10" x1="65.271" y1="254.002" x2="115.272" y2="254.002"/>
		<line fill="#BCBEC0" stroke="#000000" stroke-miterlimit="10" x1="139.771" y1="124.964" x2="189.772" y2="124.964"/>
		<line fill="#BCBEC0" stroke="#000000" stroke-miterlimit="10" x1="164.771" y1="81.662" x2="214.769" y2="81.661"/>
		<line fill="#BCBEC0" stroke="#000000" stroke-miterlimit="10" x1="114.769" y1="168.265" x2="139.768" y2="211.566"/>
		<line fill="#BCBEC0" stroke="#000000" stroke-miterlimit="10" x1="89.769" y1="211.565" x2="114.77" y2="254.869"/>
	</g>
	<polygon fill="#BCBEC0" stroke="#000000" stroke-miterlimit="10" points="189.771,38.362 214.771,81.663 164.772,81.664 	"/>
	<polygon fill="#BCBEC0" stroke="#000000" stroke-miterlimit="10" points="139.772,124.965 164.772,168.267 114.772,168.266 	"/>
	<polygon fill="#BCBEC0" stroke="#000000" stroke-miterlimit="10" points="164.236,167.956 189.235,211.258 139.236,211.258 	"/>
	<polygon fill="#BCBEC0" stroke="#000000" stroke-miterlimit="10" points="164.772,81.664 189.771,124.964 139.771,124.964 	"/>
	<polygon fill="#BCBEC0" stroke="#000000" stroke-miterlimit="10" points="114.772,168.266 139.772,211.567 89.772,211.567 	"/>
	<polygon fill="#BCBEC0" stroke="#000000" stroke-miterlimit="10" points="189.235,124.655 214.235,167.956 164.236,167.956 	"/>
	<polygon fill="#BCBEC0" stroke="#000000" stroke-miterlimit="10" points="89.772,211.566 114.772,254.868 64.772,254.868 	"/>
	<polygon fill="#BCBEC0" stroke="#000000" stroke-miterlimit="10" points="114.768,254.868 89.768,211.567 139.768,211.567 	"/>
	<polygon fill="#BCBEC0" stroke="#000000" stroke-miterlimit="10" points="189.815,211.593 164.815,168.292 214.815,168.291 	"/>
	<polygon fill="#BCBEC0" stroke="#000000" stroke-miterlimit="10" points="139.769,211.565 114.768,168.264 164.769,168.265 	"/>
	<polygon fill="#BCBEC0" stroke="#000000" stroke-miterlimit="10" points="164.236,167.956 139.236,124.656 189.235,124.655 	"/>
	<polygon fill="#BCBEC0" stroke="#000000" stroke-miterlimit="10" points="189.235,124.655 164.237,81.354 214.237,81.355 	"/>
</g>
</svg>
