<?xml version="1.0" encoding="utf-8"?>
<!-- Generator: Adobe Illustrator 16.0.0, SVG Export Plug-In . SVG Version: 6.00 Build 0)  -->
<!DOCTYPE svg PUBLIC "-//W3C//DTD SVG 1.1//EN" "http://www.w3.org/Graphics/SVG/1.1/DTD/svg11.dtd">
<svg version="1.1" id="Layer_1" xmlns="http://www.w3.org/2000/svg" xmlns:xlink="http://www.w3.org/1999/xlink" x="0px" y="0px"
	 width="300px" height="300px" viewBox="0 0 300 300" enable-background="new 0 0 300 300" xml:space="preserve">
<g>
	<g>
		<line fill="#BCBEC0" stroke="#000000" stroke-miterlimit="10" x1="70.907" y1="48.126" x2="195.906" y2="264.632"/>
		<line fill="#BCBEC0" stroke="#000000" stroke-miterlimit="10" x1="121.146" y1="49.141" x2="221.146" y2="222.347"/>
		<line fill="#BCBEC0" stroke="#000000" stroke-miterlimit="10" x1="195.884" y1="92.593" x2="220.884" y2="135.895"/>
		<line fill="#BCBEC0" stroke="#000000" stroke-miterlimit="10" x1="71.407" y1="48.992" x2="121.408" y2="48.99"/>
		<line fill="#BCBEC0" stroke="#000000" stroke-miterlimit="10" x1="96.146" y1="92.444" x2="196.145" y2="92.444"/>
		<line fill="#BCBEC0" stroke="#000000" stroke-miterlimit="10" x1="121.145" y1="135.745" x2="221.145" y2="135.745"/>
		<line fill="#BCBEC0" stroke="#000000" stroke-miterlimit="10" x1="146.452" y1="178.869" x2="196.451" y2="92.267"/>
		<line fill="#BCBEC0" stroke="#000000" stroke-miterlimit="10" x1="171.145" y1="222.35" x2="221.145" y2="135.745"/>
		<line fill="#BCBEC0" stroke="#000000" stroke-miterlimit="10" x1="195.906" y1="264.632" x2="220.907" y2="221.329"/>
		<line fill="#BCBEC0" stroke="#000000" stroke-miterlimit="10" x1="121.406" y1="135.593" x2="146.407" y2="92.291"/>
		<line fill="#BCBEC0" stroke="#000000" stroke-miterlimit="10" x1="96.405" y1="92.292" x2="121.404" y2="48.992"/>
		<line fill="#BCBEC0" stroke="#000000" stroke-miterlimit="10" x1="146.405" y1="178.896" x2="196.404" y2="178.897"/>
		<line fill="#BCBEC0" stroke="#000000" stroke-miterlimit="10" x1="171.404" y1="222.197" x2="221.406" y2="222.198"/>
	</g>
	<polygon fill="#BCBEC0" stroke="#000000" stroke-miterlimit="10" points="71.407,48.992 121.406,48.991 96.408,92.292 	"/>
	<polygon fill="#BCBEC0" stroke="#000000" stroke-miterlimit="10" points="121.408,135.593 171.408,135.593 146.407,178.895 	"/>
	<polygon fill="#BCBEC0" stroke="#000000" stroke-miterlimit="10" points="170.871,135.902 220.871,135.903 195.871,179.204 	"/>
	<polygon fill="#BCBEC0" stroke="#000000" stroke-miterlimit="10" points="96.408,92.292 146.406,92.292 121.406,135.593 	"/>
	<polygon fill="#BCBEC0" stroke="#000000" stroke-miterlimit="10" points="146.407,178.895 196.407,178.895 171.407,222.195 	"/>
	<polygon fill="#BCBEC0" stroke="#000000" stroke-miterlimit="10" points="145.871,92.602 195.87,92.602 170.871,135.902 	"/>
	<polygon fill="#BCBEC0" stroke="#000000" stroke-miterlimit="10" points="171.407,222.194 221.407,222.195 196.407,265.496 	"/>
	<polygon fill="#BCBEC0" stroke="#000000" stroke-miterlimit="10" points="221.405,222.199 171.405,222.199 196.405,178.898 	"/>
	<polygon fill="#BCBEC0" stroke="#000000" stroke-miterlimit="10" points="221.451,135.568 171.451,135.568 196.451,92.267 	"/>
	<polygon fill="#BCBEC0" stroke="#000000" stroke-miterlimit="10" points="196.404,178.896 146.403,178.896 171.404,135.595 	"/>
	<polygon fill="#BCBEC0" stroke="#000000" stroke-miterlimit="10" points="170.871,135.902 120.872,135.902 145.871,92.602 	"/>
	<polygon fill="#BCBEC0" stroke="#000000" stroke-miterlimit="10" points="145.871,92.602 95.872,92.6 120.873,49.299 	"/>
</g>
</svg>
