<?xml version="1.0" encoding="utf-8"?>
<!-- Generator: Adobe Illustrator 16.0.0, SVG Export Plug-In . SVG Version: 6.00 Build 0)  -->
<!DOCTYPE svg PUBLIC "-//W3C//DTD SVG 1.1//EN" "http://www.w3.org/Graphics/SVG/1.1/DTD/svg11.dtd">
<svg version="1.1" id="Layer_1" xmlns="http://www.w3.org/2000/svg" xmlns:xlink="http://www.w3.org/1999/xlink" x="0px" y="0px"
	 width="300px" height="300px" viewBox="0 0 300 300" enable-background="new 0 0 300 300" xml:space="preserve">
<g>
	<g>
		<line fill="#BCBEC0" stroke="#000000" stroke-miterlimit="10" x1="232.701" y1="253.624" x2="107.702" y2="37.118"/>
		<line fill="#BCBEC0" stroke="#000000" stroke-miterlimit="10" x1="182.463" y1="252.608" x2="82.463" y2="79.403"/>
		<line fill="#BCBEC0" stroke="#000000" stroke-miterlimit="10" x1="107.724" y1="209.156" x2="82.724" y2="165.855"/>
		<line fill="#BCBEC0" stroke="#000000" stroke-miterlimit="10" x1="232.201" y1="252.759" x2="182.201" y2="252.759"/>
		<line fill="#BCBEC0" stroke="#000000" stroke-miterlimit="10" x1="207.463" y1="209.306" x2="107.464" y2="209.307"/>
		<line fill="#BCBEC0" stroke="#000000" stroke-miterlimit="10" x1="182.464" y1="166.005" x2="82.464" y2="166.005"/>
		<line fill="#BCBEC0" stroke="#000000" stroke-miterlimit="10" x1="157.156" y1="122.88" x2="107.158" y2="209.483"/>
		<line fill="#BCBEC0" stroke="#000000" stroke-miterlimit="10" x1="132.464" y1="79.4" x2="82.464" y2="166.005"/>
		<line fill="#BCBEC0" stroke="#000000" stroke-miterlimit="10" x1="107.702" y1="37.118" x2="82.702" y2="80.421"/>
		<line fill="#BCBEC0" stroke="#000000" stroke-miterlimit="10" x1="182.202" y1="166.156" x2="157.202" y2="209.458"/>
		<line fill="#BCBEC0" stroke="#000000" stroke-miterlimit="10" x1="207.204" y1="209.457" x2="182.204" y2="252.758"/>
		<line fill="#BCBEC0" stroke="#000000" stroke-miterlimit="10" x1="157.204" y1="122.854" x2="107.204" y2="122.853"/>
		<line fill="#BCBEC0" stroke="#000000" stroke-miterlimit="10" x1="132.204" y1="79.553" x2="82.203" y2="79.552"/>
	</g>
	<polygon fill="#BCBEC0" stroke="#000000" stroke-miterlimit="10" points="232.201,252.759 182.202,252.758 207.201,209.458 	"/>
	<polygon fill="#BCBEC0" stroke="#000000" stroke-miterlimit="10" points="182.2,166.156 132.202,166.156 157.201,122.855 	"/>
	<polygon fill="#BCBEC0" stroke="#000000" stroke-miterlimit="10" points="132.737,165.848 82.737,165.847 107.737,122.546 	"/>
	<polygon fill="#BCBEC0" stroke="#000000" stroke-miterlimit="10" points="207.201,209.458 157.202,209.457 182.202,166.156 	"/>
	<polygon fill="#BCBEC0" stroke="#000000" stroke-miterlimit="10" points="157.201,122.855 107.202,122.854 132.201,79.554 	"/>
	<polygon fill="#BCBEC0" stroke="#000000" stroke-miterlimit="10" points="157.737,209.148 107.738,209.148 132.737,165.848 	"/>
	<polygon fill="#BCBEC0" stroke="#000000" stroke-miterlimit="10" points="132.202,79.555 82.202,79.554 107.201,36.253 	"/>
	<polygon fill="#BCBEC0" stroke="#000000" stroke-miterlimit="10" points="82.204,79.55 132.203,79.551 107.204,122.852 	"/>
	<polygon fill="#BCBEC0" stroke="#000000" stroke-miterlimit="10" points="82.158,166.182 132.158,166.182 107.158,209.482 	"/>
	<polygon fill="#BCBEC0" stroke="#000000" stroke-miterlimit="10" points="107.205,122.853 157.205,122.853 132.205,166.154 	"/>
	<polygon fill="#BCBEC0" stroke="#000000" stroke-miterlimit="10" points="132.737,165.848 182.736,165.848 157.737,209.148 	"/>
	<polygon fill="#BCBEC0" stroke="#000000" stroke-miterlimit="10" points="157.737,209.148 207.736,209.149 182.736,252.45 	"/>
</g>
</svg>
