<?xml version="1.0" encoding="utf-8"?>
<!-- Generator: Adobe Illustrator 16.0.0, SVG Export Plug-In . SVG Version: 6.00 Build 0)  -->
<!DOCTYPE svg PUBLIC "-//W3C//DTD SVG 1.1//EN" "http://www.w3.org/Graphics/SVG/1.1/DTD/svg11.dtd">
<svg version="1.1" id="Layer_1" xmlns="http://www.w3.org/2000/svg" xmlns:xlink="http://www.w3.org/1999/xlink" x="0px" y="0px"
	 width="159.333px" height="224.667px" viewBox="0 0 159.333 224.667" enable-background="new 0 0 159.333 224.667"
	 xml:space="preserve">
<g>
	<g>
		<g>
			<line fill="#BCBEC0" stroke="#000000" stroke-miterlimit="10" x1="3.534" y1="4.12" x2="128.536" y2="220.626"/>
			<line fill="#BCBEC0" stroke="#000000" stroke-miterlimit="10" x1="53.773" y1="5.137" x2="153.772" y2="178.341"/>
			<line fill="#BCBEC0" stroke="#000000" stroke-miterlimit="10" x1="128.512" y1="48.589" x2="153.514" y2="91.889"/>
			<line fill="#BCBEC0" stroke="#000000" stroke-miterlimit="10" x1="4.035" y1="4.986" x2="54.035" y2="4.986"/>
			<line fill="#BCBEC0" stroke="#000000" stroke-miterlimit="10" x1="28.772" y1="48.438" x2="128.772" y2="48.438"/>
			<line fill="#BCBEC0" stroke="#000000" stroke-miterlimit="10" x1="53.772" y1="91.74" x2="153.772" y2="91.74"/>
			<line fill="#BCBEC0" stroke="#000000" stroke-miterlimit="10" x1="79.08" y1="134.865" x2="129.079" y2="48.262"/>
			<line fill="#BCBEC0" stroke="#000000" stroke-miterlimit="10" x1="103.772" y1="178.344" x2="153.772" y2="91.74"/>
			<line fill="#BCBEC0" stroke="#000000" stroke-miterlimit="10" x1="128.536" y1="220.626" x2="153.534" y2="177.325"/>
			<line fill="#BCBEC0" stroke="#000000" stroke-miterlimit="10" x1="54.035" y1="91.589" x2="79.035" y2="48.288"/>
			<line fill="#BCBEC0" stroke="#000000" stroke-miterlimit="10" x1="29.033" y1="48.289" x2="54.032" y2="4.987"/>
			<line fill="#BCBEC0" stroke="#000000" stroke-miterlimit="10" x1="79.032" y1="134.892" x2="129.032" y2="134.892"/>
			<line fill="#BCBEC0" stroke="#000000" stroke-miterlimit="10" x1="104.032" y1="178.193" x2="154.034" y2="178.193"/>
		</g>
		<polygon fill="#BCBEC0" stroke="#000000" stroke-miterlimit="10" points="4.035,4.986 54.034,4.987 29.035,48.288 		"/>
		<polygon fill="#BCBEC0" stroke="#000000" stroke-miterlimit="10" points="54.036,91.588 104.036,91.589 79.036,134.89 		"/>
		<polygon fill="#BCBEC0" stroke="#000000" stroke-miterlimit="10" points="103.499,91.898 153.499,91.897 128.5,135.199 		"/>
		<polygon fill="#BCBEC0" stroke="#000000" stroke-miterlimit="10" points="29.035,48.288 79.034,48.289 54.035,91.589 		"/>
		<polygon fill="#BCBEC0" stroke="#000000" stroke-miterlimit="10" points="79.036,134.89 129.034,134.89 104.036,178.191 		"/>
		<polygon fill="#BCBEC0" stroke="#000000" stroke-miterlimit="10" points="78.5,48.597 128.499,48.597 103.499,91.898 		"/>
		<polygon fill="#BCBEC0" stroke="#000000" stroke-miterlimit="10" points="104.036,178.19 154.036,178.192 129.036,221.493 		"/>
		<polygon fill="#BCBEC0" stroke="#000000" stroke-miterlimit="10" points="154.032,178.195 104.034,178.194 129.032,134.894 		"/>
		<polygon fill="#BCBEC0" stroke="#000000" stroke-miterlimit="10" points="154.079,91.563 104.079,91.563 129.079,48.262 		"/>
		<polygon fill="#BCBEC0" stroke="#000000" stroke-miterlimit="10" points="129.032,134.892 79.031,134.892 104.032,91.591 		"/>
		<polygon fill="#BCBEC0" stroke="#000000" stroke-miterlimit="10" points="103.499,91.898 53.5,91.897 78.5,48.597 		"/>
		<polygon fill="#BCBEC0" stroke="#000000" stroke-miterlimit="10" points="78.5,48.597 28.5,48.596 53.5,5.295 		"/>
	</g>
	<line fill="none" stroke="#000000" stroke-width="5" stroke-miterlimit="10" x1="4.035" y1="4.986" x2="128.536" y2="220.626"/>
	<line fill="none" stroke="#000000" stroke-width="5" stroke-miterlimit="10" x1="53.773" y1="5.137" x2="78.773" y2="48.438"/>
	<line fill="none" stroke="#000000" stroke-width="5" stroke-miterlimit="10" x1="128.579" y1="47.396" x2="153.579" y2="90.698"/>
	<line fill="none" stroke="#000000" stroke-width="5" stroke-miterlimit="10" x1="129" y1="136.065" x2="154" y2="179.366"/>
	<line fill="none" stroke="#000000" stroke-width="5" stroke-miterlimit="10" x1="79.079" y1="48.262" x2="129.079" y2="48.262"/>
	<line fill="none" stroke="#000000" stroke-width="5" stroke-miterlimit="10" x1="3" y1="4.429" x2="53" y2="4.429"/>
	<line fill="none" stroke="#000000" stroke-width="5" stroke-miterlimit="10" x1="128.499" y1="135.2" x2="153.499" y2="91.899"/>
	<line fill="none" stroke="#000000" stroke-width="5" stroke-miterlimit="10" x1="129" y1="222.667" x2="154" y2="179.366"/>
</g>
</svg>
