<?xml version="1.0" encoding="utf-8"?>
<!-- Generator: Adobe Illustrator 16.0.0, SVG Export Plug-In . SVG Version: 6.00 Build 0)  -->
<!DOCTYPE svg PUBLIC "-//W3C//DTD SVG 1.1//EN" "http://www.w3.org/Graphics/SVG/1.1/DTD/svg11.dtd">
<svg version="1.1" id="Layer_1" xmlns="http://www.w3.org/2000/svg" xmlns:xlink="http://www.w3.org/1999/xlink" x="0px" y="0px"
	 width="159.333px" height="224.667px" viewBox="0 0 159.333 224.667" enable-background="new 0 0 159.333 224.667"
	 xml:space="preserve">
<g>
	<g>
		<g>
			<line fill="#BCBEC0" stroke="#000000" stroke-miterlimit="10" x1="156.799" y1="221.607" x2="31.797" y2="5.1"/>
			<line fill="#BCBEC0" stroke="#000000" stroke-miterlimit="10" x1="106.559" y1="220.59" x2="6.562" y2="47.385"/>
			<line fill="#BCBEC0" stroke="#000000" stroke-miterlimit="10" x1="31.82" y1="177.138" x2="6.818" y2="133.837"/>
			<line fill="#BCBEC0" stroke="#000000" stroke-miterlimit="10" x1="156.297" y1="220.74" x2="106.297" y2="220.74"/>
			<line fill="#BCBEC0" stroke="#000000" stroke-miterlimit="10" x1="131.561" y1="177.288" x2="31.561" y2="177.288"/>
			<line fill="#BCBEC0" stroke="#000000" stroke-miterlimit="10" x1="106.561" y1="133.986" x2="6.561" y2="133.987"/>
			<line fill="#BCBEC0" stroke="#000000" stroke-miterlimit="10" x1="81.252" y1="90.862" x2="31.254" y2="177.464"/>
			<line fill="#BCBEC0" stroke="#000000" stroke-miterlimit="10" x1="56.561" y1="47.382" x2="6.561" y2="133.987"/>
			<line fill="#BCBEC0" stroke="#000000" stroke-miterlimit="10" x1="31.797" y1="5.1" x2="6.799" y2="48.402"/>
			<line fill="#BCBEC0" stroke="#000000" stroke-miterlimit="10" x1="106.299" y1="134.137" x2="81.298" y2="177.439"/>
			<line fill="#BCBEC0" stroke="#000000" stroke-miterlimit="10" x1="131.299" y1="177.438" x2="106.301" y2="220.738"/>
			<line fill="#BCBEC0" stroke="#000000" stroke-miterlimit="10" x1="81.3" y1="90.835" x2="31.301" y2="90.834"/>
			<line fill="#BCBEC0" stroke="#000000" stroke-miterlimit="10" x1="56.301" y1="47.532" x2="6.299" y2="47.533"/>
		</g>
		<polygon fill="#BCBEC0" stroke="#000000" stroke-miterlimit="10" points="156.297,220.74 106.299,220.74 131.297,177.439 		"/>
		<polygon fill="#BCBEC0" stroke="#000000" stroke-miterlimit="10" points="106.297,134.138 56.297,134.137 81.298,90.836 		"/>
		<polygon fill="#BCBEC0" stroke="#000000" stroke-miterlimit="10" points="56.835,133.829 6.834,133.829 31.833,90.528 		"/>
		<polygon fill="#BCBEC0" stroke="#000000" stroke-miterlimit="10" points="131.297,177.439 81.299,177.438 106.299,134.137 		"/>
		<polygon fill="#BCBEC0" stroke="#000000" stroke-miterlimit="10" points="81.298,90.836 31.3,90.837 56.298,47.535 		"/>
		<polygon fill="#BCBEC0" stroke="#000000" stroke-miterlimit="10" points="81.833,177.13 31.834,177.129 56.835,133.829 		"/>
		<polygon fill="#BCBEC0" stroke="#000000" stroke-miterlimit="10" points="56.297,47.537 6.297,47.535 31.297,4.233 		"/>
		<polygon fill="#BCBEC0" stroke="#000000" stroke-miterlimit="10" points="6.301,47.532 56.3,47.531 31.302,90.833 		"/>
		<polygon fill="#BCBEC0" stroke="#000000" stroke-miterlimit="10" points="6.254,134.163 56.254,134.164 31.254,177.464 		"/>
		<polygon fill="#BCBEC0" stroke="#000000" stroke-miterlimit="10" points="31.301,90.834 81.302,90.834 56.301,134.135 		"/>
		<polygon fill="#BCBEC0" stroke="#000000" stroke-miterlimit="10" points="56.835,133.829 106.833,133.829 81.833,177.13 		"/>
		<polygon fill="#BCBEC0" stroke="#000000" stroke-miterlimit="10" points="81.833,177.13 131.833,177.13 106.833,220.432 		"/>
	</g>
	<line fill="none" stroke="#000000" stroke-width="5" stroke-miterlimit="10" x1="156.297" y1="220.74" x2="31.797" y2="5.1"/>
	<line fill="none" stroke="#000000" stroke-width="5" stroke-miterlimit="10" x1="106.559" y1="220.59" x2="81.56" y2="177.289"/>
	<line fill="none" stroke="#000000" stroke-width="5" stroke-miterlimit="10" x1="31.754" y1="178.331" x2="6.755" y2="135.029"/>
	<line fill="none" stroke="#000000" stroke-width="5" stroke-miterlimit="10" x1="31.333" y1="89.662" x2="6.332" y2="46.361"/>
	<line fill="none" stroke="#000000" stroke-width="5" stroke-miterlimit="10" x1="81.254" y1="177.465" x2="31.254" y2="177.464"/>
	
		<line fill="none" stroke="#000000" stroke-width="5" stroke-miterlimit="10" x1="157.333" y1="221.299" x2="107.333" y2="221.299"/>
	<line fill="none" stroke="#000000" stroke-width="5" stroke-miterlimit="10" x1="31.834" y1="90.526" x2="6.834" y2="133.828"/>
	<line fill="none" stroke="#000000" stroke-width="5" stroke-miterlimit="10" x1="31.332" y1="3.06" x2="6.332" y2="46.361"/>
</g>
</svg>
