<?xml version="1.0" encoding="utf-8"?>
<!-- Generator: Adobe Illustrator 16.0.0, SVG Export Plug-In . SVG Version: 6.00 Build 0)  -->
<!DOCTYPE svg PUBLIC "-//W3C//DTD SVG 1.1//EN" "http://www.w3.org/Graphics/SVG/1.1/DTD/svg11.dtd">
<svg version="1.1" id="Layer_1" xmlns="http://www.w3.org/2000/svg" xmlns:xlink="http://www.w3.org/1999/xlink" x="0px" y="0px"
	 width="260px" height="96px" viewBox="0 0 260 96" enable-background="new 0 0 260 96" xml:space="preserve">
<g>
	<g>
		<g>
			<line fill="#BCBEC0" stroke="#000000" stroke-miterlimit="10" x1="255.93" y1="5.347" x2="5.928" y2="5.348"/>
			<line fill="#BCBEC0" stroke="#000000" stroke-miterlimit="10" x1="229.929" y1="48.348" x2="29.93" y2="48.346"/>
			<line fill="#BCBEC0" stroke="#000000" stroke-miterlimit="10" x1="154.929" y1="91.347" x2="104.929" y2="91.349"/>
			<line fill="#BCBEC0" stroke="#000000" stroke-miterlimit="10" x1="254.928" y1="5.348" x2="229.928" y2="48.649"/>
			<line fill="#BCBEC0" stroke="#000000" stroke-miterlimit="10" x1="204.93" y1="5.044" x2="154.93" y2="91.647"/>
			<line fill="#BCBEC0" stroke="#000000" stroke-miterlimit="10" x1="154.929" y1="5.044" x2="104.93" y2="91.647"/>
			<line fill="#BCBEC0" stroke="#000000" stroke-miterlimit="10" x1="104.928" y1="5.4" x2="154.929" y2="92"/>
			<line fill="#BCBEC0" stroke="#000000" stroke-miterlimit="10" x1="54.928" y1="5.043" x2="104.93" y2="91.647"/>
			<line fill="#BCBEC0" stroke="#000000" stroke-miterlimit="10" x1="5.928" y1="5.348" x2="30.93" y2="48.648"/>
			<line fill="#BCBEC0" stroke="#000000" stroke-miterlimit="10" x1="154.929" y1="5.346" x2="179.929" y2="48.649"/>
			<line fill="#BCBEC0" stroke="#000000" stroke-miterlimit="10" x1="204.928" y1="5.346" x2="229.929" y2="48.645"/>
			<line fill="#BCBEC0" stroke="#000000" stroke-miterlimit="10" x1="104.929" y1="5.345" x2="79.928" y2="48.645"/>
			<line fill="#BCBEC0" stroke="#000000" stroke-miterlimit="10" x1="54.928" y1="5.343" x2="29.928" y2="48.647"/>
		</g>
		<polygon fill="#BCBEC0" stroke="#000000" stroke-miterlimit="10" points="254.928,5.348 229.929,48.648 204.928,5.348 		"/>
		<polygon fill="#BCBEC0" stroke="#000000" stroke-miterlimit="10" points="154.928,5.348 129.928,48.649 104.928,5.348 		"/>
		<polygon fill="#BCBEC0" stroke="#000000" stroke-miterlimit="10" points="129.929,48.029 104.93,91.332 79.929,48.031 		"/>
		<polygon fill="#BCBEC0" stroke="#000000" stroke-miterlimit="10" points="204.928,5.348 179.928,48.647 154.929,5.346 		"/>
		<polygon fill="#BCBEC0" stroke="#000000" stroke-miterlimit="10" points="104.928,5.348 79.93,48.648 54.928,5.348 		"/>
		<polygon fill="#BCBEC0" stroke="#000000" stroke-miterlimit="10" points="179.929,48.031 154.929,91.331 129.929,48.029 		"/>
		<polygon fill="#BCBEC0" stroke="#000000" stroke-miterlimit="10" points="54.93,5.349 29.928,48.649 4.928,5.348 		"/>
		<polygon fill="#BCBEC0" stroke="#000000" stroke-miterlimit="10" points="29.928,48.645 54.926,5.344 79.928,48.645 		"/>
		<polygon fill="#BCBEC0" stroke="#000000" stroke-miterlimit="10" points="104.929,92 129.929,48.7 154.929,92 		"/>
		<polygon fill="#BCBEC0" stroke="#000000" stroke-miterlimit="10" points="79.928,48.645 104.929,5.343 129.928,48.645 		"/>
		<polygon fill="#BCBEC0" stroke="#000000" stroke-miterlimit="10" points="129.929,48.029 154.929,4.73 179.929,48.031 		"/>
		<polygon fill="#BCBEC0" stroke="#000000" stroke-miterlimit="10" points="179.929,48.031 204.928,4.73 229.929,48.032 		"/>
	</g>
	<line fill="none" stroke="#000000" stroke-width="5" stroke-miterlimit="10" x1="254.928" y1="5.348" x2="5.928" y2="5.348"/>
	<line fill="none" stroke="#000000" stroke-width="5" stroke-miterlimit="10" x1="229.929" y1="48.348" x2="179.929" y2="48.347"/>
	<line fill="none" stroke="#000000" stroke-width="5" stroke-miterlimit="10" x1="155.929" y1="92" x2="105.929" y2="92"/>
	<line fill="none" stroke="#000000" stroke-width="5" stroke-miterlimit="10" x1="78.929" y1="48.032" x2="28.929" y2="48.033"/>
	<line fill="none" stroke="#000000" stroke-width="5" stroke-miterlimit="10" x1="179.929" y1="48.7" x2="154.929" y2="92"/>
	<line fill="none" stroke="#000000" stroke-width="5" stroke-miterlimit="10" x1="255.93" y1="4.731" x2="230.93" y2="48.032"/>
	<line fill="none" stroke="#000000" stroke-width="5" stroke-miterlimit="10" x1="79.929" y1="48.029" x2="104.929" y2="91.331"/>
	<line fill="none" stroke="#000000" stroke-width="5" stroke-miterlimit="10" x1="3.929" y1="4.731" x2="28.929" y2="48.033"/>
</g>
</svg>
