<?xml version="1.0" encoding="utf-8"?>
<!-- Generator: Adobe Illustrator 16.0.0, SVG Export Plug-In . SVG Version: 6.00 Build 0)  -->
<!DOCTYPE svg PUBLIC "-//W3C//DTD SVG 1.1//EN" "http://www.w3.org/Graphics/SVG/1.1/DTD/svg11.dtd">
<svg version="1.1" id="Layer_1" xmlns="http://www.w3.org/2000/svg" xmlns:xlink="http://www.w3.org/1999/xlink" x="0px" y="0px"
	 width="159.333px" height="224.667px" viewBox="0 0 159.333 224.667" enable-background="new 0 0 159.333 224.667"
	 xml:space="preserve">
<g>
	<g>
		<g>
			<line fill="#BCBEC0" stroke="#000000" stroke-miterlimit="10" x1="29.799" y1="223.358" x2="154.799" y2="6.851"/>
			<line fill="#BCBEC0" stroke="#000000" stroke-miterlimit="10" x1="5.561" y1="179.342" x2="105.561" y2="6.138"/>
			<line fill="#BCBEC0" stroke="#000000" stroke-miterlimit="10" x1="5.821" y1="92.89" x2="30.82" y2="49.587"/>
			<line fill="#BCBEC0" stroke="#000000" stroke-miterlimit="10" x1="30.299" y1="222.491" x2="5.299" y2="179.19"/>
			<line fill="#BCBEC0" stroke="#000000" stroke-miterlimit="10" x1="55.561" y1="179.342" x2="5.562" y2="92.74"/>
			<line fill="#BCBEC0" stroke="#000000" stroke-miterlimit="10" x1="80.562" y1="136.041" x2="30.562" y2="49.439"/>
			<line fill="#BCBEC0" stroke="#000000" stroke-miterlimit="10" x1="105.254" y1="92.561" x2="5.255" y2="92.563"/>
			<line fill="#BCBEC0" stroke="#000000" stroke-miterlimit="10" x1="130.563" y1="49.438" x2="30.562" y2="49.439"/>
			<line fill="#BCBEC0" stroke="#000000" stroke-miterlimit="10" x1="154.799" y1="6.851" x2="104.799" y2="6.853"/>
			<line fill="#BCBEC0" stroke="#000000" stroke-miterlimit="10" x1="80.3" y1="135.889" x2="30.299" y2="135.889"/>
			<line fill="#BCBEC0" stroke="#000000" stroke-miterlimit="10" x1="55.301" y1="179.191" x2="5.302" y2="179.192"/>
			<line fill="#BCBEC0" stroke="#000000" stroke-miterlimit="10" x1="105.301" y1="92.589" x2="80.303" y2="49.288"/>
			<line fill="#BCBEC0" stroke="#000000" stroke-miterlimit="10" x1="130.303" y1="49.288" x2="105.301" y2="5.985"/>
		</g>
		<polygon fill="#BCBEC0" stroke="#000000" stroke-miterlimit="10" points="30.299,222.491 5.3,179.191 55.299,179.19 		"/>
		<polygon fill="#BCBEC0" stroke="#000000" stroke-miterlimit="10" points="80.299,135.889 55.299,92.587 105.299,92.587 		"/>
		<polygon fill="#BCBEC0" stroke="#000000" stroke-miterlimit="10" points="55.835,92.898 30.834,49.597 80.834,49.595 		"/>
		<polygon fill="#BCBEC0" stroke="#000000" stroke-miterlimit="10" points="55.299,179.19 30.301,135.89 80.3,135.889 		"/>
		<polygon fill="#BCBEC0" stroke="#000000" stroke-miterlimit="10" points="105.299,92.587 80.3,49.288 130.299,49.286 		"/>
		<polygon fill="#BCBEC0" stroke="#000000" stroke-miterlimit="10" points="30.834,136.198 5.835,92.897 55.835,92.898 		"/>
		<polygon fill="#BCBEC0" stroke="#000000" stroke-miterlimit="10" points="130.297,49.287 105.299,5.984 155.299,5.984 		"/>
		<polygon fill="#BCBEC0" stroke="#000000" stroke-miterlimit="10" points="105.303,5.987 130.303,49.286 80.304,49.288 		"/>
		<polygon fill="#BCBEC0" stroke="#000000" stroke-miterlimit="10" points="30.255,49.261 55.255,92.563 5.255,92.563 		"/>
		<polygon fill="#BCBEC0" stroke="#000000" stroke-miterlimit="10" points="80.303,49.288 105.303,92.59 55.303,92.589 		"/>
		<polygon fill="#BCBEC0" stroke="#000000" stroke-miterlimit="10" points="55.835,92.898 80.834,136.198 30.834,136.198 		"/>
		<polygon fill="#BCBEC0" stroke="#000000" stroke-miterlimit="10" points="30.834,136.198 55.834,179.499 5.834,179.5 		"/>
	</g>
	<line fill="none" stroke="#000000" stroke-width="5" stroke-miterlimit="10" x1="30.299" y1="222.491" x2="154.799" y2="6.851"/>
	<line fill="none" stroke="#000000" stroke-width="5" stroke-miterlimit="10" x1="5.561" y1="179.342" x2="30.561" y2="136.041"/>
	<line fill="none" stroke="#000000" stroke-width="5" stroke-miterlimit="10" x1="4.755" y1="93.429" x2="29.756" y2="50.127"/>
	<line fill="none" stroke="#000000" stroke-width="5" stroke-miterlimit="10" x1="81.334" y1="48.729" x2="106.333" y2="5.428"/>
	<line fill="none" stroke="#000000" stroke-width="5" stroke-miterlimit="10" x1="30.255" y1="135.864" x2="5.255" y2="92.563"/>
	<line fill="none" stroke="#000000" stroke-width="5" stroke-miterlimit="10" x1="30.333" y1="223.667" x2="5.333" y2="180.365"/>
	<line fill="none" stroke="#000000" stroke-width="5" stroke-miterlimit="10" x1="80.836" y1="49.596" x2="30.836" y2="49.596"/>
	<line fill="none" stroke="#000000" stroke-width="5" stroke-miterlimit="10" x1="156.333" y1="5.428" x2="106.333" y2="5.428"/>
</g>
</svg>
