<?xml version="1.0" encoding="utf-8"?>
<!-- Generator: Adobe Illustrator 16.0.0, SVG Export Plug-In . SVG Version: 6.00 Build 0)  -->
<!DOCTYPE svg PUBLIC "-//W3C//DTD SVG 1.1//EN" "http://www.w3.org/Graphics/SVG/1.1/DTD/svg11.dtd">
<svg version="1.1" id="Layer_1" xmlns="http://www.w3.org/2000/svg" xmlns:xlink="http://www.w3.org/1999/xlink" x="0px" y="0px"
	 width="300px" height="300px" viewBox="0 0 300 300" enable-background="new 0 0 300 300" xml:space="preserve">
<g>
	<line fill="#BCBEC0" stroke="#000000" stroke-miterlimit="10" x1="24" y1="183.334" x2="274" y2="183.334"/>
	<line fill="#BCBEC0" stroke="#000000" stroke-miterlimit="10" x1="50" y1="140.334" x2="249.999" y2="140.334"/>
	<line fill="#BCBEC0" stroke="#000000" stroke-miterlimit="10" x1="125" y1="97.334" x2="175" y2="97.333"/>
	<line fill="#BCBEC0" stroke="#000000" stroke-miterlimit="10" x1="25" y1="183.334" x2="50" y2="140.033"/>
	<line fill="#BCBEC0" stroke="#000000" stroke-miterlimit="10" x1="75" y1="183.637" x2="125" y2="97.034"/>
	<line fill="#BCBEC0" stroke="#000000" stroke-miterlimit="10" x1="125" y1="183.637" x2="175" y2="97.034"/>
	<line fill="#BCBEC0" stroke="#000000" stroke-miterlimit="10" x1="175.001" y1="183.282" x2="125" y2="96.681"/>
	<line fill="#BCBEC0" stroke="#000000" stroke-miterlimit="10" x1="225.002" y1="183.638" x2="175" y2="97.034"/>
	<line fill="#BCBEC0" stroke="#000000" stroke-miterlimit="10" x1="274" y1="183.334" x2="248.999" y2="140.033"/>
	<line fill="#BCBEC0" stroke="#000000" stroke-miterlimit="10" x1="125" y1="183.334" x2="100" y2="140.033"/>
	<line fill="#BCBEC0" stroke="#000000" stroke-miterlimit="10" x1="75" y1="183.336" x2="50" y2="140.035"/>
	<line fill="#BCBEC0" stroke="#000000" stroke-miterlimit="10" x1="175" y1="183.337" x2="200.001" y2="140.036"/>
	<line fill="#BCBEC0" stroke="#000000" stroke-miterlimit="10" x1="225" y1="183.337" x2="250.001" y2="140.035"/>
</g>
<polygon fill="#BCBEC0" stroke="#000000" stroke-miterlimit="10" points="25,183.334 50,140.034 75,183.334 "/>
<polygon fill="#BCBEC0" stroke="#000000" stroke-miterlimit="10" points="125,183.333 150,140.033 175,183.333 "/>
<polygon fill="#BCBEC0" stroke="#000000" stroke-miterlimit="10" points="150,140.65 175,97.35 200,140.65 "/>
<polygon fill="#BCBEC0" stroke="#000000" stroke-miterlimit="10" points="75,183.334 100,140.034 125,183.334 "/>
<polygon fill="#BCBEC0" stroke="#000000" stroke-miterlimit="10" points="175,183.333 200,140.033 225,183.333 "/>
<polygon fill="#BCBEC0" stroke="#000000" stroke-miterlimit="10" points="100,140.65 125,97.35 150,140.65 "/>
<polygon fill="#BCBEC0" stroke="#000000" stroke-miterlimit="10" points="224.999,183.333 250,140.033 275,183.333 "/>
<polygon fill="#BCBEC0" stroke="#000000" stroke-miterlimit="10" points="250.002,140.036 225.002,183.337 200.002,140.036 "/>
<polygon fill="#BCBEC0" stroke="#000000" stroke-miterlimit="10" points="175,96.681 150,139.981 125,96.681 "/>
<polygon fill="#BCBEC0" stroke="#000000" stroke-miterlimit="10" points="200,140.037 175,183.338 150,140.037 "/>
<polygon fill="#BCBEC0" stroke="#000000" stroke-miterlimit="10" points="150,140.65 125,183.951 100,140.65 "/>
<polygon fill="#BCBEC0" stroke="#000000" stroke-miterlimit="10" points="100,140.65 75,183.951 50,140.65 "/>
</svg>
