<?xml version="1.0" encoding="utf-8"?>
<!-- Generator: Adobe Illustrator 16.0.0, SVG Export Plug-In . SVG Version: 6.00 Build 0)  -->
<!DOCTYPE svg PUBLIC "-//W3C//DTD SVG 1.1//EN" "http://www.w3.org/Graphics/SVG/1.1/DTD/svg11.dtd">
<svg version="1.1" id="Layer_1" xmlns="http://www.w3.org/2000/svg" xmlns:xlink="http://www.w3.org/1999/xlink" x="0px" y="0px"
	 width="300px" height="300px" viewBox="0 0 300 300" enable-background="new 0 0 300 300" xml:space="preserve">
<g>
	<g>
		<line fill="#BCBEC0" stroke="#000000" stroke-miterlimit="10" x1="275.499" y1="111.774" x2="25.5" y2="111.773"/>
		<line fill="#BCBEC0" stroke="#000000" stroke-miterlimit="10" x1="249.501" y1="154.773" x2="49.501" y2="154.773"/>
		<line fill="#BCBEC0" stroke="#000000" stroke-miterlimit="10" x1="174.5" y1="197.773" x2="124.501" y2="197.773"/>
		<line fill="#BCBEC0" stroke="#000000" stroke-miterlimit="10" x1="274.5" y1="111.774" x2="249.5" y2="155.076"/>
		<line fill="#BCBEC0" stroke="#000000" stroke-miterlimit="10" x1="224.499" y1="111.472" x2="174.501" y2="198.074"/>
		<line fill="#BCBEC0" stroke="#000000" stroke-miterlimit="10" x1="174.5" y1="111.471" x2="124.5" y2="198.074"/>
		<line fill="#BCBEC0" stroke="#000000" stroke-miterlimit="10" x1="124.5" y1="111.826" x2="174.501" y2="198.428"/>
		<line fill="#BCBEC0" stroke="#000000" stroke-miterlimit="10" x1="74.499" y1="111.47" x2="124.5" y2="198.074"/>
		<line fill="#BCBEC0" stroke="#000000" stroke-miterlimit="10" x1="25.5" y1="111.773" x2="50.501" y2="155.076"/>
		<line fill="#BCBEC0" stroke="#000000" stroke-miterlimit="10" x1="174.501" y1="111.774" x2="199.501" y2="155.076"/>
		<line fill="#BCBEC0" stroke="#000000" stroke-miterlimit="10" x1="224.501" y1="111.772" x2="249.501" y2="155.072"/>
		<line fill="#BCBEC0" stroke="#000000" stroke-miterlimit="10" x1="124.5" y1="111.771" x2="99.499" y2="155.072"/>
		<line fill="#BCBEC0" stroke="#000000" stroke-miterlimit="10" x1="74.5" y1="111.771" x2="49.499" y2="155.074"/>
	</g>
	<polygon fill="#BCBEC0" stroke="#000000" stroke-miterlimit="10" points="274.5,111.774 249.5,155.074 224.5,111.775 	"/>
	<polygon fill="#BCBEC0" stroke="#000000" stroke-miterlimit="10" points="174.5,111.775 149.5,155.076 124.5,111.775 	"/>
	<polygon fill="#BCBEC0" stroke="#000000" stroke-miterlimit="10" points="149.501,154.457 124.5,197.758 99.5,154.457 	"/>
	<polygon fill="#BCBEC0" stroke="#000000" stroke-miterlimit="10" points="224.5,111.775 199.5,155.074 174.501,111.774 	"/>
	<polygon fill="#BCBEC0" stroke="#000000" stroke-miterlimit="10" points="124.5,111.775 99.5,155.076 74.5,111.775 	"/>
	<polygon fill="#BCBEC0" stroke="#000000" stroke-miterlimit="10" points="199.5,154.457 174.501,197.758 149.501,154.457 	"/>
	<polygon fill="#BCBEC0" stroke="#000000" stroke-miterlimit="10" points="74.501,111.775 49.5,155.076 24.5,111.775 	"/>
	<polygon fill="#BCBEC0" stroke="#000000" stroke-miterlimit="10" points="49.498,155.072 74.499,111.771 99.498,155.072 	"/>
	<polygon fill="#BCBEC0" stroke="#000000" stroke-miterlimit="10" points="124.5,198.428 149.5,155.127 174.5,198.428 	"/>
	<polygon fill="#BCBEC0" stroke="#000000" stroke-miterlimit="10" points="99.5,155.072 124.5,111.77 149.5,155.072 	"/>
	<polygon fill="#BCBEC0" stroke="#000000" stroke-miterlimit="10" points="149.501,154.457 174.5,111.157 199.5,154.457 	"/>
	<polygon fill="#BCBEC0" stroke="#000000" stroke-miterlimit="10" points="199.5,154.457 224.501,111.157 249.5,154.459 	"/>
</g>
</svg>
