<?xml version="1.0" encoding="utf-8"?>
<!-- Generator: Adobe Illustrator 16.0.0, SVG Export Plug-In . SVG Version: 6.00 Build 0)  -->
<!DOCTYPE svg PUBLIC "-//W3C//DTD SVG 1.1//EN" "http://www.w3.org/Graphics/SVG/1.1/DTD/svg11.dtd">
<svg version="1.1" id="Layer_1" xmlns="http://www.w3.org/2000/svg" xmlns:xlink="http://www.w3.org/1999/xlink" x="0px" y="0px"
	 width="300px" height="300px" viewBox="0 0 300 300" enable-background="new 0 0 300 300" xml:space="preserve">
<g>
	<g>
		<line fill="#BCBEC0" stroke="#000000" stroke-miterlimit="10" x1="113.338" y1="264.252" x2="238.338" y2="47.747"/>
		<line fill="#BCBEC0" stroke="#000000" stroke-miterlimit="10" x1="89.099" y1="220.236" x2="189.099" y2="47.032"/>
		<line fill="#BCBEC0" stroke="#000000" stroke-miterlimit="10" x1="89.359" y1="133.785" x2="114.359" y2="90.483"/>
		<line fill="#BCBEC0" stroke="#000000" stroke-miterlimit="10" x1="113.837" y1="263.387" x2="88.837" y2="220.086"/>
		<line fill="#BCBEC0" stroke="#000000" stroke-miterlimit="10" x1="139.1" y1="220.236" x2="89.099" y2="133.635"/>
		<line fill="#BCBEC0" stroke="#000000" stroke-miterlimit="10" x1="164.1" y1="176.936" x2="114.1" y2="90.333"/>
		<line fill="#BCBEC0" stroke="#000000" stroke-miterlimit="10" x1="188.793" y1="133.457" x2="88.793" y2="133.458"/>
		<line fill="#BCBEC0" stroke="#000000" stroke-miterlimit="10" x1="214.102" y1="90.333" x2="114.1" y2="90.333"/>
		<line fill="#BCBEC0" stroke="#000000" stroke-miterlimit="10" x1="238.338" y1="47.747" x2="188.337" y2="47.748"/>
		<line fill="#BCBEC0" stroke="#000000" stroke-miterlimit="10" x1="163.838" y1="176.785" x2="113.837" y2="176.785"/>
		<line fill="#BCBEC0" stroke="#000000" stroke-miterlimit="10" x1="138.839" y1="220.088" x2="88.84" y2="220.088"/>
		<line fill="#BCBEC0" stroke="#000000" stroke-miterlimit="10" x1="188.84" y1="133.485" x2="163.841" y2="90.183"/>
		<line fill="#BCBEC0" stroke="#000000" stroke-miterlimit="10" x1="213.84" y1="90.184" x2="188.84" y2="46.881"/>
	</g>
	<polygon fill="#BCBEC0" stroke="#000000" stroke-miterlimit="10" points="113.837,263.387 88.838,220.086 138.837,220.086 	"/>
	<polygon fill="#BCBEC0" stroke="#000000" stroke-miterlimit="10" points="163.837,176.783 138.838,133.483 188.837,133.483 	"/>
	<polygon fill="#BCBEC0" stroke="#000000" stroke-miterlimit="10" points="139.373,133.792 114.373,90.491 164.373,90.491 	"/>
	<polygon fill="#BCBEC0" stroke="#000000" stroke-miterlimit="10" points="138.837,220.086 113.838,176.785 163.838,176.785 	"/>
	<polygon fill="#BCBEC0" stroke="#000000" stroke-miterlimit="10" points="188.837,133.483 163.838,90.182 213.837,90.182 	"/>
	<polygon fill="#BCBEC0" stroke="#000000" stroke-miterlimit="10" points="114.373,177.094 89.373,133.793 139.373,133.793 	"/>
	<polygon fill="#BCBEC0" stroke="#000000" stroke-miterlimit="10" points="213.837,90.183 188.838,46.881 238.837,46.88 	"/>
	<polygon fill="#BCBEC0" stroke="#000000" stroke-miterlimit="10" points="188.842,46.881 213.841,90.182 163.842,90.182 	"/>
	<polygon fill="#BCBEC0" stroke="#000000" stroke-miterlimit="10" points="113.794,90.157 138.793,133.458 88.794,133.458 	"/>
	<polygon fill="#BCBEC0" stroke="#000000" stroke-miterlimit="10" points="163.841,90.184 188.841,133.485 138.841,133.485 	"/>
	<polygon fill="#BCBEC0" stroke="#000000" stroke-miterlimit="10" points="139.373,133.792 164.372,177.094 114.373,177.094 	"/>
	<polygon fill="#BCBEC0" stroke="#000000" stroke-miterlimit="10" points="114.373,177.094 139.372,220.395 89.373,220.395 	"/>
</g>
</svg>
