<?xml version="1.0" encoding="utf-8"?>
<!-- Generator: Adobe Illustrator 16.0.0, SVG Export Plug-In . SVG Version: 6.00 Build 0)  -->
<!DOCTYPE svg PUBLIC "-//W3C//DTD SVG 1.1//EN" "http://www.w3.org/Graphics/SVG/1.1/DTD/svg11.dtd">
<svg version="1.1" id="Layer_1" xmlns="http://www.w3.org/2000/svg" xmlns:xlink="http://www.w3.org/1999/xlink" x="0px" y="0px"
	 width="2048px" height="2048px" viewBox="0 0 2048 2048" enable-background="new 0 0 2048 2048" xml:space="preserve">
<g>
	<line fill="none" stroke="#000000" stroke-width="2" stroke-miterlimit="10" x1="3524" y1="900" x2="-1476" y2="900"/>
	<line fill="none" stroke="#000000" stroke-width="2" stroke-miterlimit="10" x1="3523.998" y1="950" x2="-1475.998" y2="950"/>
	<line fill="none" stroke="#000000" stroke-width="2" stroke-miterlimit="10" x1="3523.996" y1="800" x2="-1475.997" y2="800"/>
	<line fill="none" stroke="#000000" stroke-width="2" stroke-miterlimit="10" x1="3524" y1="850" x2="-1475.999" y2="850"/>
	<line fill="none" stroke="#000000" stroke-width="2" stroke-miterlimit="10" x1="3523.998" y1="750" x2="-1475.998" y2="750"/>
	<line fill="none" stroke="#000000" stroke-width="2" stroke-miterlimit="10" x1="3523.998" y1="650" x2="-1475.998" y2="650"/>
	<line fill="none" stroke="#000000" stroke-width="2" stroke-miterlimit="10" x1="3524" y1="700" x2="-1475.999" y2="700"/>
	<line fill="none" stroke="#000000" stroke-width="2" stroke-miterlimit="10" x1="3523.998" y1="550" x2="-1475.998" y2="550"/>
	<line fill="none" stroke="#000000" stroke-width="2" stroke-miterlimit="10" x1="3524" y1="600" x2="-1476" y2="600"/>
	<line fill="none" stroke="#000000" stroke-width="2" stroke-miterlimit="10" x1="3523.998" y1="500" x2="-1475.998" y2="500"/>
	<line fill="none" stroke="#000000" stroke-width="2" stroke-miterlimit="10" x1="3523.998" y1="400" x2="-1475.998" y2="400"/>
	<line fill="none" stroke="#000000" stroke-width="2" stroke-miterlimit="10" x1="3524" y1="450" x2="-1475.999" y2="450"/>
	<line fill="none" stroke="#000000" stroke-width="2" stroke-miterlimit="10" x1="3524" y1="300" x2="-1475.999" y2="300"/>
	<line fill="none" stroke="#000000" stroke-width="2" stroke-miterlimit="10" x1="3524" y1="350" x2="-1476" y2="350"/>
	<line fill="none" stroke="#000000" stroke-width="2" stroke-miterlimit="10" x1="3524" y1="250" x2="-1475.999" y2="250"/>
	<line fill="none" stroke="#000000" stroke-width="2" stroke-miterlimit="10" x1="3523.998" y1="150" x2="-1475.998" y2="150"/>
	<line fill="none" stroke="#000000" stroke-width="2" stroke-miterlimit="10" x1="3524" y1="200" x2="-1475.999" y2="200"/>
	<line fill="none" stroke="#000000" stroke-width="2" stroke-miterlimit="10" x1="3524" y1="50" x2="-1476" y2="50"/>
	<line fill="none" stroke="#000000" stroke-width="2" stroke-miterlimit="10" x1="3524" y1="100" x2="-1476" y2="100"/>
	<line fill="none" stroke="#000000" stroke-width="2" stroke-miterlimit="10" x1="3524" y1="0" x2="-1476" y2="0"/>
	<line fill="none" stroke="#000000" stroke-width="2" stroke-miterlimit="10" x1="3524" y1="1850" x2="-1476" y2="1850"/>
	<line fill="none" stroke="#000000" stroke-width="2" stroke-miterlimit="10" x1="3523.998" y1="1900" x2="-1475.998" y2="1900"/>
	<line fill="none" stroke="#000000" stroke-width="2" stroke-miterlimit="10" x1="3523.996" y1="1750" x2="-1475.997" y2="1750"/>
	<line fill="none" stroke="#000000" stroke-width="2" stroke-miterlimit="10" x1="3524" y1="1800" x2="-1475.999" y2="1800"/>
	<line fill="none" stroke="#000000" stroke-width="2" stroke-miterlimit="10" x1="3523.998" y1="1700" x2="-1475.998" y2="1700"/>
	<line fill="none" stroke="#000000" stroke-width="2" stroke-miterlimit="10" x1="3523.998" y1="1600" x2="-1475.998" y2="1600"/>
	<line fill="none" stroke="#000000" stroke-width="2" stroke-miterlimit="10" x1="3524" y1="1650" x2="-1475.999" y2="1650"/>
	<line fill="none" stroke="#000000" stroke-width="2" stroke-miterlimit="10" x1="3523.998" y1="1500" x2="-1475.998" y2="1500"/>
	<line fill="none" stroke="#000000" stroke-width="2" stroke-miterlimit="10" x1="3524" y1="1550" x2="-1476" y2="1550"/>
	<line fill="none" stroke="#000000" stroke-width="2" stroke-miterlimit="10" x1="3523.998" y1="1450" x2="-1475.998" y2="1450"/>
	<line fill="none" stroke="#000000" stroke-width="2" stroke-miterlimit="10" x1="3523.998" y1="1350" x2="-1475.998" y2="1350"/>
	<line fill="none" stroke="#000000" stroke-width="2" stroke-miterlimit="10" x1="3524" y1="1400" x2="-1475.999" y2="1400"/>
	<line fill="none" stroke="#000000" stroke-width="2" stroke-miterlimit="10" x1="3524" y1="1250" x2="-1475.999" y2="1250"/>
	<line fill="none" stroke="#000000" stroke-width="2" stroke-miterlimit="10" x1="3524" y1="1300" x2="-1476" y2="1300"/>
	<line fill="none" stroke="#000000" stroke-width="2" stroke-miterlimit="10" x1="3524" y1="1200" x2="-1475.999" y2="1200"/>
	<line fill="none" stroke="#000000" stroke-width="2" stroke-miterlimit="10" x1="3523.998" y1="1100" x2="-1475.998" y2="1100"/>
	<line fill="none" stroke="#000000" stroke-width="2" stroke-miterlimit="10" x1="3524" y1="1150" x2="-1475.999" y2="1150"/>
	<line fill="none" stroke="#000000" stroke-width="2" stroke-miterlimit="10" x1="3524" y1="1000" x2="-1476" y2="1000"/>
	<line fill="none" stroke="#000000" stroke-width="2" stroke-miterlimit="10" x1="3524" y1="1050" x2="-1476" y2="1050"/>
	<line fill="none" stroke="#000000" stroke-width="2" stroke-miterlimit="10" x1="3523.996" y1="2050" x2="-1475.996" y2="2050"/>
	<line fill="none" stroke="#000000" stroke-width="2" stroke-miterlimit="10" x1="3523.998" y1="2000" x2="-1475.998" y2="2000"/>
	<line fill="none" stroke="#000000" stroke-width="2" stroke-miterlimit="10" x1="3524" y1="1950" x2="-1476" y2="1950"/>
	<line fill="none" stroke="#000000" stroke-width="2" stroke-miterlimit="10" x1="3524" y1="2600" x2="-1476" y2="2600"/>
	<line fill="none" stroke="#000000" stroke-width="2" stroke-miterlimit="10" x1="3523.998" y1="2650" x2="-1475.998" y2="2650"/>
	<line fill="none" stroke="#000000" stroke-width="2" stroke-miterlimit="10" x1="3523.996" y1="2500" x2="-1475.997" y2="2500"/>
	<line fill="none" stroke="#000000" stroke-width="2" stroke-miterlimit="10" x1="3524" y1="2550" x2="-1476" y2="2550"/>
	<line fill="none" stroke="#000000" stroke-width="2" stroke-miterlimit="10" x1="3523.998" y1="2450" x2="-1475.998" y2="2450"/>
	<line fill="none" stroke="#000000" stroke-width="2" stroke-miterlimit="10" x1="3523.998" y1="2350" x2="-1475.998" y2="2350"/>
	<line fill="none" stroke="#000000" stroke-width="2" stroke-miterlimit="10" x1="3524" y1="2400" x2="-1476" y2="2400"/>
	<line fill="none" stroke="#000000" stroke-width="2" stroke-miterlimit="10" x1="3523.998" y1="2250" x2="-1475.998" y2="2250"/>
	<line fill="none" stroke="#000000" stroke-width="2" stroke-miterlimit="10" x1="3524" y1="2300" x2="-1476" y2="2300"/>
	<line fill="none" stroke="#000000" stroke-width="2" stroke-miterlimit="10" x1="3523.998" y1="2200" x2="-1475.998" y2="2200"/>
	<line fill="none" stroke="#000000" stroke-width="2" stroke-miterlimit="10" x1="3523.998" y1="2100" x2="-1475.998" y2="2100"/>
	<line fill="none" stroke="#000000" stroke-width="2" stroke-miterlimit="10" x1="3524" y1="2150" x2="-1476" y2="2150"/>
	<line fill="none" stroke="#000000" stroke-width="2" stroke-miterlimit="10" x1="3523.996" y1="2800" x2="-1475.996" y2="2800"/>
	<line fill="none" stroke="#000000" stroke-width="2" stroke-miterlimit="10" x1="3523.998" y1="2750" x2="-1475.998" y2="2750"/>
	<line fill="none" stroke="#000000" stroke-width="2" stroke-miterlimit="10" x1="3524" y1="2700" x2="-1476" y2="2700"/>
</g>
<g>
	
		<line fill="none" stroke="#000000" stroke-width="2" stroke-miterlimit="10" x1="1625.987" y1="-1015.063" x2="-874.012" y2="3315.064"/>
	
		<line fill="none" stroke="#000000" stroke-width="2" stroke-miterlimit="10" x1="1669.288" y1="-990.062" x2="-830.71" y2="3340.063"/>
	
		<line fill="none" stroke="#000000" stroke-width="2" stroke-miterlimit="10" x1="1539.383" y1="-1065.061" x2="-960.614" y2="3265.061"/>
	
		<line fill="none" stroke="#000000" stroke-width="2" stroke-miterlimit="10" x1="1582.686" y1="-1040.063" x2="-917.313" y2="3290.063"/>
	
		<line fill="none" stroke="#000000" stroke-width="2" stroke-miterlimit="10" x1="1496.082" y1="-1090.062" x2="-1003.916" y2="3240.063"/>
	
		<line fill="none" stroke="#000000" stroke-width="2" stroke-miterlimit="10" x1="1409.479" y1="-1140.062" x2="-1090.518" y2="3190.063"/>
	
		<line fill="none" stroke="#000000" stroke-width="2" stroke-miterlimit="10" x1="1452.782" y1="-1115.063" x2="-1047.217" y2="3215.063"/>
	
		<line fill="none" stroke="#000000" stroke-width="2" stroke-miterlimit="10" x1="1322.877" y1="-1190.062" x2="-1177.121" y2="3140.063"/>
	
		<line fill="none" stroke="#000000" stroke-width="2" stroke-miterlimit="10" x1="1366.18" y1="-1165.063" x2="-1133.82" y2="3165.063"/>
	
		<line fill="none" stroke="#000000" stroke-width="2" stroke-miterlimit="10" x1="1279.576" y1="-1215.062" x2="-1220.422" y2="3115.063"/>
	
		<line fill="none" stroke="#000000" stroke-width="2" stroke-miterlimit="10" x1="1192.974" y1="-1265.062" x2="-1307.024" y2="3065.063"/>
	
		<line fill="none" stroke="#000000" stroke-width="2" stroke-miterlimit="10" x1="1236.275" y1="-1240.063" x2="-1263.724" y2="3090.063"/>
	
		<line fill="none" stroke="#000000" stroke-width="2" stroke-miterlimit="10" x1="1106.372" y1="-1315.063" x2="-1393.627" y2="3015.063"/>
	
		<line fill="none" stroke="#000000" stroke-width="2" stroke-miterlimit="10" x1="1149.673" y1="-1290.063" x2="-1350.327" y2="3040.063"/>
	
		<line fill="none" stroke="#000000" stroke-width="2" stroke-miterlimit="10" x1="1063.07" y1="-1340.063" x2="-1436.929" y2="2990.063"/>
	
		<line fill="none" stroke="#000000" stroke-width="2" stroke-miterlimit="10" x1="976.467" y1="-1390.062" x2="-1523.531" y2="2940.063"/>
	
		<line fill="none" stroke="#000000" stroke-width="2" stroke-miterlimit="10" x1="1019.77" y1="-1365.063" x2="-1480.23" y2="2965.063"/>
	
		<line fill="none" stroke="#000000" stroke-width="2" stroke-miterlimit="10" x1="889.865" y1="-1440.063" x2="-1610.134" y2="2890.063"/>
	
		<line fill="none" stroke="#000000" stroke-width="2" stroke-miterlimit="10" x1="933.167" y1="-1415.063" x2="-1566.833" y2="2915.063"/>
	
		<line fill="none" stroke="#000000" stroke-width="2" stroke-miterlimit="10" x1="846.564" y1="-1465.063" x2="-1653.436" y2="2865.063"/>
	
		<line fill="none" stroke="#000000" stroke-width="2" stroke-miterlimit="10" x1="2448.711" y1="-540.063" x2="-51.289" y2="3790.063"/>
	
		<line fill="none" stroke="#000000" stroke-width="2" stroke-miterlimit="10" x1="2492.012" y1="-515.062" x2="-7.986" y2="3815.062"/>
	
		<line fill="none" stroke="#000000" stroke-width="2" stroke-miterlimit="10" x1="2362.107" y1="-590.061" x2="-137.89" y2="3740.061"/>
	
		<line fill="none" stroke="#000000" stroke-width="2" stroke-miterlimit="10" x1="2405.41" y1="-565.063" x2="-94.589" y2="3765.063"/>
	
		<line fill="none" stroke="#000000" stroke-width="2" stroke-miterlimit="10" x1="2318.807" y1="-615.062" x2="-181.191" y2="3715.062"/>
	
		<line fill="none" stroke="#000000" stroke-width="2" stroke-miterlimit="10" x1="2232.204" y1="-665.062" x2="-267.794" y2="3665.062"/>
	
		<line fill="none" stroke="#000000" stroke-width="2" stroke-miterlimit="10" x1="2275.506" y1="-640.063" x2="-224.493" y2="3690.063"/>
	
		<line fill="none" stroke="#000000" stroke-width="2" stroke-miterlimit="10" x1="2145.602" y1="-715.062" x2="-354.396" y2="3615.062"/>
	
		<line fill="none" stroke="#000000" stroke-width="2" stroke-miterlimit="10" x1="2188.904" y1="-690.063" x2="-311.096" y2="3640.063"/>
	
		<line fill="none" stroke="#000000" stroke-width="2" stroke-miterlimit="10" x1="2102.301" y1="-740.062" x2="-397.698" y2="3590.062"/>
	
		<line fill="none" stroke="#000000" stroke-width="2" stroke-miterlimit="10" x1="2015.697" y1="-790.062" x2="-484.3" y2="3540.062"/>
	<line fill="none" stroke="#000000" stroke-width="2" stroke-miterlimit="10" x1="2059" y1="-765.063" x2="-441" y2="3565.063"/>
	
		<line fill="none" stroke="#000000" stroke-width="2" stroke-miterlimit="10" x1="1929.096" y1="-840.063" x2="-570.903" y2="3490.063"/>
	
		<line fill="none" stroke="#000000" stroke-width="2" stroke-miterlimit="10" x1="1972.397" y1="-815.063" x2="-527.603" y2="3515.063"/>
	
		<line fill="none" stroke="#000000" stroke-width="2" stroke-miterlimit="10" x1="1885.795" y1="-865.063" x2="-614.205" y2="3465.063"/>
	
		<line fill="none" stroke="#000000" stroke-width="2" stroke-miterlimit="10" x1="1799.191" y1="-915.062" x2="-700.807" y2="3415.062"/>
	
		<line fill="none" stroke="#000000" stroke-width="2" stroke-miterlimit="10" x1="1842.494" y1="-890.063" x2="-657.506" y2="3440.063"/>
	
		<line fill="none" stroke="#000000" stroke-width="2" stroke-miterlimit="10" x1="1712.59" y1="-965.063" x2="-787.41" y2="3365.063"/>
	
		<line fill="none" stroke="#000000" stroke-width="2" stroke-miterlimit="10" x1="1755.891" y1="-940.063" x2="-744.109" y2="3390.063"/>
	
		<line fill="none" stroke="#000000" stroke-width="2" stroke-miterlimit="10" x1="2621.914" y1="-440.061" x2="121.918" y2="3890.061"/>
	
		<line fill="none" stroke="#000000" stroke-width="2" stroke-miterlimit="10" x1="2578.614" y1="-465.062" x2="78.616" y2="3865.062"/>
	
		<line fill="none" stroke="#000000" stroke-width="2" stroke-miterlimit="10" x1="2535.314" y1="-490.063" x2="35.314" y2="3840.063"/>
	
		<line fill="none" stroke="#000000" stroke-width="2" stroke-miterlimit="10" x1="3098.23" y1="-165.064" x2="598.23" y2="4165.063"/>
	
		<line fill="none" stroke="#000000" stroke-width="2" stroke-miterlimit="10" x1="3141.531" y1="-140.062" x2="641.533" y2="4190.062"/>
	
		<line fill="none" stroke="#000000" stroke-width="2" stroke-miterlimit="10" x1="3011.626" y1="-215.061" x2="511.63" y2="4115.061"/>
	
		<line fill="none" stroke="#000000" stroke-width="2" stroke-miterlimit="10" x1="3054.93" y1="-190.064" x2="554.93" y2="4140.063"/>
	
		<line fill="none" stroke="#000000" stroke-width="2" stroke-miterlimit="10" x1="2968.326" y1="-240.062" x2="468.328" y2="4090.062"/>
	
		<line fill="none" stroke="#000000" stroke-width="2" stroke-miterlimit="10" x1="2881.723" y1="-290.062" x2="381.725" y2="4040.062"/>
	
		<line fill="none" stroke="#000000" stroke-width="2" stroke-miterlimit="10" x1="2925.025" y1="-265.064" x2="425.026" y2="4065.063"/>
	
		<line fill="none" stroke="#000000" stroke-width="2" stroke-miterlimit="10" x1="2795.121" y1="-340.062" x2="295.123" y2="3990.062"/>
	
		<line fill="none" stroke="#000000" stroke-width="2" stroke-miterlimit="10" x1="2838.423" y1="-315.064" x2="338.423" y2="4015.063"/>
	
		<line fill="none" stroke="#000000" stroke-width="2" stroke-miterlimit="10" x1="2751.819" y1="-365.062" x2="251.821" y2="3965.062"/>
	
		<line fill="none" stroke="#000000" stroke-width="2" stroke-miterlimit="10" x1="2665.217" y1="-415.062" x2="165.219" y2="3915.062"/>
	
		<line fill="none" stroke="#000000" stroke-width="2" stroke-miterlimit="10" x1="2708.52" y1="-390.064" x2="208.52" y2="3940.063"/>
	
		<line fill="none" stroke="#000000" stroke-width="2" stroke-miterlimit="10" x1="3271.434" y1="-65.061" x2="771.438" y2="4265.061"/>
	
		<line fill="none" stroke="#000000" stroke-width="2" stroke-miterlimit="10" x1="3228.133" y1="-90.062" x2="728.135" y2="4240.062"/>
	
		<line fill="none" stroke="#000000" stroke-width="2" stroke-miterlimit="10" x1="3184.833" y1="-115.064" x2="684.833" y2="4215.063"/>
</g>
<g>
	
		<line fill="none" stroke="#000000" stroke-width="2" stroke-miterlimit="10" x1="-440.218" y1="-565.065" x2="2059.783" y2="3765.062"/>
	
		<line fill="none" stroke="#000000" stroke-width="2" stroke-miterlimit="10" x1="-396.916" y1="-590.063" x2="2103.084" y2="3740.06"/>
	
		<line fill="none" stroke="#000000" stroke-width="2" stroke-miterlimit="10" x1="-526.819" y1="-515.063" x2="1973.178" y2="3815.059"/>
	
		<line fill="none" stroke="#000000" stroke-width="2" stroke-miterlimit="10" x1="-483.52" y1="-540.065" x2="2016.48" y2="3790.061"/>
	
		<line fill="none" stroke="#000000" stroke-width="2" stroke-miterlimit="10" x1="-570.121" y1="-490.064" x2="1929.879" y2="3840.061"/>
	
		<line fill="none" stroke="#000000" stroke-width="2" stroke-miterlimit="10" x1="-656.724" y1="-440.063" x2="1843.275" y2="3890.061"/>
	
		<line fill="none" stroke="#000000" stroke-width="2" stroke-miterlimit="10" x1="-613.423" y1="-465.065" x2="1886.576" y2="3865.061"/>
	
		<line fill="none" stroke="#000000" stroke-width="2" stroke-miterlimit="10" x1="-743.326" y1="-390.064" x2="1756.674" y2="3940.061"/>
	
		<line fill="none" stroke="#000000" stroke-width="2" stroke-miterlimit="10" x1="-700.025" y1="-415.066" x2="1799.975" y2="3915.062"/>
	
		<line fill="none" stroke="#000000" stroke-width="2" stroke-miterlimit="10" x1="-786.627" y1="-365.064" x2="1713.371" y2="3965.061"/>
	
		<line fill="none" stroke="#000000" stroke-width="2" stroke-miterlimit="10" x1="-873.23" y1="-315.063" x2="1626.77" y2="4015.061"/>
	
		<line fill="none" stroke="#000000" stroke-width="2" stroke-miterlimit="10" x1="-829.93" y1="-340.065" x2="1670.07" y2="3990.061"/>
	
		<line fill="none" stroke="#000000" stroke-width="2" stroke-miterlimit="10" x1="-959.833" y1="-265.065" x2="1540.166" y2="4065.061"/>
	
		<line fill="none" stroke="#000000" stroke-width="2" stroke-miterlimit="10" x1="-916.533" y1="-290.064" x2="1583.467" y2="4040.062"/>
	
		<line fill="none" stroke="#000000" stroke-width="2" stroke-miterlimit="10" x1="-1003.135" y1="-240.065" x2="1496.865" y2="4090.061"/>
	
		<line fill="none" stroke="#000000" stroke-width="2" stroke-miterlimit="10" x1="-1089.737" y1="-190.063" x2="1410.264" y2="4140.061"/>
	
		<line fill="none" stroke="#000000" stroke-width="2" stroke-miterlimit="10" x1="-1046.436" y1="-215.065" x2="1453.564" y2="4115.061"/>
	
		<line fill="none" stroke="#000000" stroke-width="2" stroke-miterlimit="10" x1="-1176.34" y1="-140.065" x2="1323.66" y2="4190.062"/>
	
		<line fill="none" stroke="#000000" stroke-width="2" stroke-miterlimit="10" x1="-1133.039" y1="-165.065" x2="1366.961" y2="4165.062"/>
	
		<line fill="none" stroke="#000000" stroke-width="2" stroke-miterlimit="10" x1="-1219.641" y1="-115.065" x2="1280.359" y2="4215.062"/>
	
		<line fill="none" stroke="#000000" stroke-width="2" stroke-miterlimit="10" x1="382.506" y1="-1040.065" x2="2882.506" y2="3290.061"/>
	
		<line fill="none" stroke="#000000" stroke-width="2" stroke-miterlimit="10" x1="425.808" y1="-1065.064" x2="2925.807" y2="3265.06"/>
	
		<line fill="none" stroke="#000000" stroke-width="2" stroke-miterlimit="10" x1="295.905" y1="-990.063" x2="2795.902" y2="3340.059"/>
	
		<line fill="none" stroke="#000000" stroke-width="2" stroke-miterlimit="10" x1="339.205" y1="-1015.066" x2="2839.205" y2="3315.061"/>
	
		<line fill="none" stroke="#000000" stroke-width="2" stroke-miterlimit="10" x1="252.603" y1="-965.064" x2="2752.602" y2="3365.06"/>
	<line fill="none" stroke="#000000" stroke-width="2" stroke-miterlimit="10" x1="166" y1="-915.063" x2="2665.998" y2="3415.06"/>
	
		<line fill="none" stroke="#000000" stroke-width="2" stroke-miterlimit="10" x1="209.301" y1="-940.065" x2="2709.301" y2="3390.061"/>
	
		<line fill="none" stroke="#000000" stroke-width="2" stroke-miterlimit="10" x1="79.398" y1="-865.064" x2="2579.396" y2="3465.06"/>
	
		<line fill="none" stroke="#000000" stroke-width="2" stroke-miterlimit="10" x1="122.699" y1="-890.066" x2="2622.699" y2="3440.062"/>
	
		<line fill="none" stroke="#000000" stroke-width="2" stroke-miterlimit="10" x1="36.097" y1="-840.064" x2="2536.094" y2="3490.06"/>
	
		<line fill="none" stroke="#000000" stroke-width="2" stroke-miterlimit="10" x1="-50.506" y1="-790.064" x2="2449.492" y2="3540.06"/>
	
		<line fill="none" stroke="#000000" stroke-width="2" stroke-miterlimit="10" x1="-7.205" y1="-815.066" x2="2492.795" y2="3515.061"/>
	
		<line fill="none" stroke="#000000" stroke-width="2" stroke-miterlimit="10" x1="-137.109" y1="-740.065" x2="2362.891" y2="3590.061"/>
	
		<line fill="none" stroke="#000000" stroke-width="2" stroke-miterlimit="10" x1="-93.808" y1="-765.065" x2="2406.191" y2="3565.062"/>
	
		<line fill="none" stroke="#000000" stroke-width="2" stroke-miterlimit="10" x1="-180.41" y1="-715.066" x2="2319.59" y2="3615.061"/>
	
		<line fill="none" stroke="#000000" stroke-width="2" stroke-miterlimit="10" x1="-267.012" y1="-665.064" x2="2232.986" y2="3665.06"/>
	
		<line fill="none" stroke="#000000" stroke-width="2" stroke-miterlimit="10" x1="-223.711" y1="-690.066" x2="2276.289" y2="3640.061"/>
	
		<line fill="none" stroke="#000000" stroke-width="2" stroke-miterlimit="10" x1="-353.615" y1="-615.066" x2="2146.385" y2="3715.062"/>
	
		<line fill="none" stroke="#000000" stroke-width="2" stroke-miterlimit="10" x1="-310.314" y1="-640.065" x2="2189.686" y2="3690.062"/>
	
		<line fill="none" stroke="#000000" stroke-width="2" stroke-miterlimit="10" x1="555.712" y1="-1140.063" x2="3055.711" y2="3190.059"/>
	
		<line fill="none" stroke="#000000" stroke-width="2" stroke-miterlimit="10" x1="512.41" y1="-1115.063" x2="3012.408" y2="3215.06"/>
	
		<line fill="none" stroke="#000000" stroke-width="2" stroke-miterlimit="10" x1="469.109" y1="-1090.066" x2="2969.109" y2="3240.061"/>
	
		<line fill="none" stroke="#000000" stroke-width="2" stroke-miterlimit="10" x1="1032.025" y1="-1415.066" x2="3532.025" y2="2915.061"/>
	
		<line fill="none" stroke="#000000" stroke-width="2" stroke-miterlimit="10" x1="1075.328" y1="-1440.065" x2="3575.324" y2="2890.06"/>
	
		<line fill="none" stroke="#000000" stroke-width="2" stroke-miterlimit="10" x1="945.424" y1="-1365.062" x2="3445.422" y2="2965.059"/>
	
		<line fill="none" stroke="#000000" stroke-width="2" stroke-miterlimit="10" x1="988.724" y1="-1390.066" x2="3488.725" y2="2940.061"/>
	
		<line fill="none" stroke="#000000" stroke-width="2" stroke-miterlimit="10" x1="902.123" y1="-1340.065" x2="3402.119" y2="2990.06"/>
	
		<line fill="none" stroke="#000000" stroke-width="2" stroke-miterlimit="10" x1="815.52" y1="-1290.064" x2="3315.518" y2="3040.059"/>
	
		<line fill="none" stroke="#000000" stroke-width="2" stroke-miterlimit="10" x1="858.82" y1="-1315.066" x2="3358.82" y2="3015.061"/>
	
		<line fill="none" stroke="#000000" stroke-width="2" stroke-miterlimit="10" x1="728.917" y1="-1240.065" x2="3228.914" y2="3090.06"/>
	
		<line fill="none" stroke="#000000" stroke-width="2" stroke-miterlimit="10" x1="772.217" y1="-1265.065" x2="3272.217" y2="3065.061"/>
	
		<line fill="none" stroke="#000000" stroke-width="2" stroke-miterlimit="10" x1="685.615" y1="-1215.063" x2="3185.613" y2="3115.06"/>
	
		<line fill="none" stroke="#000000" stroke-width="2" stroke-miterlimit="10" x1="599.013" y1="-1165.064" x2="3099.012" y2="3165.06"/>
	
		<line fill="none" stroke="#000000" stroke-width="2" stroke-miterlimit="10" x1="642.313" y1="-1190.066" x2="3142.314" y2="3140.061"/>
	
		<line fill="none" stroke="#000000" stroke-width="2" stroke-miterlimit="10" x1="1205.232" y1="-1515.063" x2="3705.229" y2="2815.059"/>
	
		<line fill="none" stroke="#000000" stroke-width="2" stroke-miterlimit="10" x1="1161.93" y1="-1490.064" x2="3661.928" y2="2840.059"/>
	
		<line fill="none" stroke="#000000" stroke-width="2" stroke-miterlimit="10" x1="1118.627" y1="-1465.065" x2="3618.627" y2="2865.061"/>
</g>
</svg>
